<svg width="430.117" height="430.118" xmlns="http://www.w3.org/2000/svg">

 <g>
  <title>background</title>
  <rect fill="none" id="canvas_background" height="402" width="582" y="-1" x="-1"/>
 </g>
 <g>
  <title>Layer 1</title>
  <ellipse ry="214" rx="214" id="svg_17" cy="215.058994" cx="215.0585" stroke-width="1.5" stroke="#000" fill="#000000"/>
  <path stroke="null" fill="#ffffff" d="m246.039944,178.507829c0,-7.269765 5.839081,-13.15943 13.05489,-13.15943c7.196418,0 13.039714,5.889665 13.039714,13.15943c0,7.267236 -5.843296,13.161116 -13.039714,13.161116c-7.216652,-0.003372 -13.05489,-5.897252 -13.05489,-13.161116zm-40.607999,-112.102594l-0.107913,0l0,18.038258l16.556989,0l0,-17.510498c5.697446,-2.888347 9.647214,-8.766209 9.647214,-15.63636c0,-9.693582 -7.783193,-17.54675 -17.396684,-17.54675c-9.610119,0 -17.401742,7.853167 -17.401742,17.54675c-0.003372,6.485713 3.518118,12.075246 8.702136,15.1086zm-36.22911,125.260338c7.198948,0 13.041401,-5.89388 13.041401,-13.163645c0,-7.267236 -5.843296,-13.157744 -13.041401,-13.157744c-7.215809,0 -13.05489,5.890508 -13.05489,13.157744c0,7.269765 5.839081,13.163645 13.05489,13.163645zm44.928717,204.702523c19.640084,0 36.334493,-12.597947 42.67267,-30.218044l-85.348712,0c6.340705,17.619253 23.030056,30.218044 42.676042,30.218044zm-136.062553,-53.463925c0,-6.964575 4.052622,-12.929273 9.884115,-15.761977l0,-74.608884c0,-14.715731 11.361168,-26.731962 25.724498,-27.684628l0,-36.104336c0,0 3.494512,-65.801365 57.778741,-86.269341c16.124496,-6.076826 30.846129,-8.534365 43.601729,-8.996366c12.764875,0.462001 27.48735,2.91954 43.595828,8.992994c54.294346,20.467976 57.793073,86.269341 57.793073,86.269341l0,36.100964c14.353212,0.956038 25.71691,12.976484 25.71691,27.688l0,74.613099c5.83065,2.832704 9.884115,8.801618 9.884115,15.761977c0,9.686838 -7.79078,17.540848 -17.399213,17.540848c-9.608432,0 -17.399213,-7.853167 -17.399213,-17.540848c0,-6.964575 4.056837,-12.929273 9.875685,-15.761977l0,-49.875833c-3.234004,1.668429 -6.862564,2.675894 -10.674912,2.935559l0,17.33514c0.098639,1.401177 0.212453,2.790551 0.212453,4.226294c0,1.519206 -0.097796,3.021551 -0.212453,4.52474l0,0.4013l-0.018547,0c-2.317591,28.88094 -24.725463,52.016379 -53.126698,55.171978l0.023606,0.393712l-48.270633,0l-48.276535,0l0.032037,-0.393712c-28.400392,-3.155599 -50.802363,-26.291882 -53.119954,-55.171978l-0.016018,0l0,-0.4013c-0.107913,-1.503188 -0.212453,-3.005533 -0.212453,-4.52474c0,-1.432371 0.107913,-2.825117 0.212453,-4.226294l0,-17.332611c-3.82668,-0.263037 -7.454397,-1.262914 -10.688401,-2.938931l0,49.884263c5.828964,2.832704 9.884115,8.798245 9.884115,15.75439c0,9.695268 -7.789094,17.545063 -17.403428,17.545063c-9.60506,-0.001686 -17.400899,-7.850638 -17.400899,-17.545906zm166.026833,-91.76445c0,-4.657944 -3.745746,-8.444157 -8.37334,-8.444157c-4.635181,0 -8.380927,3.781155 -8.380927,8.444157c0,4.666375 3.745746,8.451745 8.380927,8.451745c4.627594,0 8.37334,-3.78537 8.37334,-8.451745zm20.617199,0c0,-4.657944 -3.745746,-8.444157 -8.37334,-8.444157s-8.380084,3.781155 -8.380084,8.444157c0,4.666375 3.753333,8.451745 8.380084,8.451745s8.37334,-3.78537 8.37334,-8.451745zm20.62563,0c0,-4.657944 -3.745746,-8.444157 -8.37334,-8.444157c-4.635181,0 -8.380084,3.781155 -8.380084,8.444157c0,4.666375 3.744903,8.451745 8.380084,8.451745c4.627594,0 8.37334,-3.78537 8.37334,-8.451745zm-140.789628,-70.194586c0,22.41799 17.400899,23.884083 17.400899,23.884083c6.055749,1.92978 18.85266,0.972056 24.642843,0c5.329025,-0.90714 24.883117,-2.610978 27.996563,-2.888347c0.118872,0.011803 0.306876,0.032037 0.46453,0.038781c0.165241,-0.007588 0.350716,-0.026978 0.460314,-0.038781c3.116818,0.273154 22.664165,1.981207 27.999092,2.888347c5.8003,0.972056 18.587937,1.92978 24.647058,0c0,0 17.394998,-1.461878 17.394998,-23.884083c0,0 0,-24.858668 -17.394998,-39.968111c-16.872296,-14.654187 -42.230903,-17.833392 -52.182463,-18.022239l0,-0.016018c-0.141635,0 -0.314464,0.011803 -0.46453,0.011803c-0.145007,0 -0.326267,-0.011803 -0.460314,-0.011803c-0.141635,0 -0.318679,0.011803 -0.46453,0.011803c-0.147537,0 -0.324581,-0.011803 -0.462001,-0.011803l0,0.016018c-9.941444,0.188847 -35.307638,3.368052 -52.177405,18.022239c-17.400056,15.109443 -17.400056,39.968111 -17.400056,39.968111z" id="Robo.to"/>
  <g id="svg_2"/>
  <g id="svg_3"/>
  <g id="svg_4"/>
  <g id="svg_5"/>
  <g id="svg_6"/>
  <g id="svg_7"/>
  <g id="svg_8"/>
  <g id="svg_9"/>
  <g id="svg_10"/>
  <g id="svg_11"/>
  <g id="svg_12"/>
  <g id="svg_13"/>
  <g id="svg_14"/>
  <g id="svg_15"/>
  <g id="svg_16"/>
  <ellipse id="svg_18" cy="185.496506" cx="690.558472" stroke-width="1.5" stroke="#000" fill="#ffffff"/>
  <path id="svg_19" d="m86.158424,154.896438l0,0c-15.929807,0 -28.846027,-12.533826 -28.846027,-28.000004c0,-15.464197 12.91622,-28.000004 28.846027,-28.000004l0,0c-9.078405,6.609681 -14.422023,16.983869 -14.422023,28.000004s5.343618,21.388342 14.422023,28.000004z" stroke-opacity="null" stroke-width="1.5" stroke="#000" fill="#ffffff"/>
  <path stroke="#000" id="svg_21" d="m349.465687,105.319315l5.729539,0l1.770472,-5.443038l1.770473,5.443038l5.729538,0l-4.635286,3.363944l1.770563,5.443038l-4.635288,-3.364036l-4.635287,3.364036l1.770564,-5.443038l-4.635288,-3.363944z" stroke-opacity="null" stroke-width="1.5" fill="#ffffff"/>
  <path id="svg_22" d="m316.46568,89.38365l7.63939,0l2.36063,-7.25738l2.36063,7.25738l7.63938,0l-6.18038,4.48526l2.36075,7.25739l-6.18038,-4.48538l-6.18039,4.48538l2.36076,-7.25739l-6.18039,-4.48526z" stroke-opacity="null" stroke-width="1.5" stroke="#000" fill="#ffffff"/>
  <path stroke="#000" id="svg_23" d="m323.465685,128.286599l10.695141,0l3.304881,-10.160328l3.304881,10.160328l10.695127,0l-8.652528,6.279361l3.305049,10.160342l-8.652528,-6.279529l-8.652542,6.279529l3.305063,-10.160342l-8.652542,-6.279361z" stroke-opacity="null" stroke-width="1.5" fill="#ffffff"/>
 </g>
</svg>